<?xml version="1.0" standalone="no"?>
<!DOCTYPE svg PUBLIC "-//W3C//DTD SVG 20010904//EN"
 "http://www.w3.org/TR/2001/REC-SVG-20010904/DTD/svg10.dtd">
<svg version="1.0" xmlns="http://www.w3.org/2000/svg"
 width="225.000000pt" height="225.000000pt" viewBox="0 0 225.000000 225.000000"
 preserveAspectRatio="xMidYMid meet">

<g transform="translate(0.000000,225.000000) scale(0.100000,-0.100000)"
fill="#000000" stroke="none">
<path d="M750 1910 c-11 -11 -20 -24 -20 -30 0 -5 9 -19 20 -30 19 -19 33 -20
208 -19 225 1 237 4 237 47 0 18 4 33 10 33 44 6 -123 17 -262 18 -160 1 -174
0 -193 -19z"/>
<path d="M598 1648 c-18 -14 -98 -207 -98 -236 0 -43 58 -57 83 -21 8 11 28
54 43 95 l29 74 207 0 c202 0 207 0 222 22 20 29 20 34 -4 58 -19 19 -33 20
-243 20 -163 0 -228 -3 -239 -12z"/>
<path d="M1175 1430 l-36 -60 -177 0 c-192 0 -222 -7 -222 -53 0 -13 68 -114
160 -239 88 -119 160 -219 160 -222 0 -3 -58 -6 -129 -6 l-128 0 -132 175
c-73 96 -141 180 -152 185 -39 21 -79 -23 -57 -63 17 -33 267 -359 290 -379
17 -15 41 -18 163 -18 184 0 265 8 265 27 0 8 5 11 10 8 6 -3 10 4 10 17 0 15
-61 107 -159 243 -88 121 -159 220 -158 221 1 1 58 4 125 7 134 6 122 9 170
-53 l20 -24 0 127 c1 70 6 135 12 147 24 44 -1 16 -35 -40z m12 -22 c-3 -8 -6
-5 -6 6 -1 11 2 17 5 13 3 -3 4 -12 1 -19z"/>
<path d="M1416 1454 c-27 -27 -18 -49 60 -156 73 -98 106 -139 90 -110 -5 7 2
16 18 22 14 5 26 14 26 19 0 6 8 7 17 4 15 -6 -27 60 -111 172 -50 68 -71 78
-100 49z"/>
<path d="M680 470 l0 -120 25 0 c22 0 25 4 25 38 l1 37 33 -38 c23 -28 39 -38
55 -35 22 3 21 4 -9 45 l-32 43 32 40 32 40 -26 0 c-17 0 -37 -12 -56 -32
l-29 -33 -1 68 c0 65 -1 67 -25 67 l-25 0 0 -120z"/>
<path d="M1090 535 c0 -8 -4 -15 -10 -15 -5 0 -10 -9 -10 -20 0 -11 5 -20 10
-20 6 0 10 -24 10 -53 0 -60 12 -77 52 -77 21 0 28 5 28 20 0 11 -7 20 -15 20
-11 0 -15 12 -15 45 0 33 4 45 15 45 8 0 15 9 15 20 0 11 -7 20 -15 20 -8 0
-15 7 -15 15 0 9 -9 15 -25 15 -16 0 -25 -6 -25 -15z"/>
<path d="M899 515 c-52 -28 -58 -109 -11 -145 25 -20 76 -27 86 -12 3 5 19 7
36 4 l30 -4 0 81 0 82 -32 -2 c-18 -1 -44 1 -58 4 -14 4 -36 1 -51 -8z m85
-51 c12 -32 6 -55 -19 -66 -21 -9 -28 -8 -45 7 -37 33 -19 75 31 75 15 0 29
-7 33 -16z"/>
<path d="M1254 520 c-56 -23 -72 -103 -29 -145 24 -25 78 -34 89 -17 3 5 19 7
36 4 l30 -4 0 81 0 82 -32 -2 c-18 0 -42 2 -53 5 -11 3 -30 1 -41 -4z m74 -73
c7 -55 -44 -78 -73 -33 -24 36 -5 68 38 64 27 -2 33 -8 35 -31z"/>
<path d="M1760 517 c-81 -42 -45 -180 42 -163 18 4 45 6 61 6 l27 0 0 80 0 80
-32 -1 c-18 -1 -42 1 -53 5 -11 3 -31 0 -45 -7z m80 -53 c10 -11 11 -23 4 -42
-17 -48 -84 -38 -84 12 0 43 53 63 80 30z"/>
<path d="M369 494 c-33 -35 -31 -89 4 -120 22 -19 38 -23 86 -22 l60 1 3 82 3
83 -66 0 c-58 1 -69 -2 -90 -24z m99 -26 c30 -30 0 -85 -41 -74 -31 7 -46 48
-27 71 15 18 51 20 68 3z"/>
<path d="M560 434 c0 -77 2 -84 20 -84 16 0 19 8 22 58 3 48 7 59 26 67 12 5
22 17 22 26 0 12 -11 16 -45 17 l-45 0 0 -84z"/>
<path d="M1410 434 c0 -82 0 -84 25 -84 23 0 24 4 27 62 3 53 6 63 22 66 28 6
46 -25 46 -80 0 -41 3 -48 20 -48 16 0 19 8 22 56 2 40 8 60 20 67 29 19 48
-9 48 -69 0 -47 2 -54 20 -54 18 0 20 7 20 68 0 54 -4 72 -18 85 -21 19 -54
22 -83 6 -13 -7 -24 -7 -32 -1 -7 6 -40 10 -74 10 l-63 0 0 -84z"/>
</g>
</svg>
